<svg xmlns="http://www.w3.org/2000/svg" width="2000" height="1338"><path fill="#CFFF70" d="M1996 0c2.723 2.1 3.85 3.358 4.637 6.734l.05 3.016.137 2.984c-1.04 4.121-3 5.934-5.86 8.985-3.606 4.189-6.136 9.045-8.839 13.843l-3.71 6.473-1.789 3.133A489 489 0 0 1 1974.5 55.5c-10.008 16.58-19.618 33.386-29.04 50.305a1447 1447 0 0 1-6.983 12.39c-5.219 9.156-10.333 18.283-14.942 27.762-1.541 3.056-3.219 5.98-4.973 8.918-3.834 6.46-7.142 13.133-10.451 19.871-2.018 4.094-4.067 8.173-6.111 12.254l-2.562 5.129a2561 2561 0 0 1-4.5 8.96c-4.2 8.331-8.247 16.726-12.238 25.158a614 614 0 0 1-7.388 15.065c-9.862 19.53-18.862 39.512-27.75 59.5l-.977 2.196c-4.665 10.49-9.159 21.045-13.594 31.633-1.594 3.794-3.205 7.58-4.815 11.367-8.72 20.541-17.127 41.18-25.176 61.992l-1.398 3.61a4951 4951 0 0 0-7.482 19.463 3198 3198 0 0 1-3.268 8.497c-3.559 9.243-6.984 18.516-10.22 27.877a735 735 0 0 1-5.359 14.953c-8.953 24.225-16.856 48.868-24.61 73.5q-1.14 3.613-2.284 7.225a9529 9529 0 0 0-6.673 21.188c-5.012 15.99-9.8 32.031-14.293 48.174l-.638 2.261c-.56 1.985-1.111 3.971-1.663 5.958-1.57 4.653-2.772 7.54-7.112 9.981l-3 1.313-3 2c-5.473-.206-8.508-1.625-12.75-5l-1.555-1.221A401 401 0 0 1 1693 644l-2.762-2.21A672 672 0 0 1 1682 635l-1.567-1.305c-5.791-4.83-11.504-9.717-17.058-14.82-4.38-4.018-8.89-7.812-13.516-11.543a367 367 0 0 1-7.393-6.216c-7.468-6.411-15.234-12.382-23.087-18.312-2.52-1.911-5.029-3.836-7.535-5.765-9.477-7.28-19.033-14.388-28.836-21.223-4.053-2.83-8.034-5.752-12.008-8.691-5.234-3.867-10.523-7.607-16-11.125-3.108 3.008-6.014 6.13-8.875 9.375-8.8 9.812-18.027 19.279-28.383 27.453-3.142 2.489-6.192 5.072-9.242 7.672-9.426 8-19.023 15.74-28.852 23.238a931 931 0 0 0-4.835 3.73A1388 1388 0 0 1 1465 615l-1.87 1.429c-18.183 13.838-18.183 13.838-26.505 15.071-3.089-.588-4.333-1.363-6.625-3.5-1.014-2.488-1.014-2.488-1.754-5.527l-.882-3.52-.927-3.89q-.506-2.057-1.017-4.112-1.12-4.517-2.218-9.04a1797 1797 0 0 0-3.85-15.419A5668 5668 0 0 1 1411 553l-.616-2.498c-9.485-38.537-17.65-77.39-24.384-116.502l-.731-4.2q-.913-5.244-1.804-10.493-.495-2.898-.994-5.796l-.588-3.523-.52-3.077c-.374-3-.426-5.89-.363-8.911h-2l-1.543-1.695c-3.493-3.276-7.505-5.059-11.77-7.18-24.271-12.413-47.274-27.531-69.055-43.902a624 624 0 0 0-4.655-3.446c-7.912-5.843-15.526-12.027-23.127-18.264a858 858 0 0 0-4.928-3.993c-5.633-4.547-11.038-9.281-16.367-14.18a343 343 0 0 0-6.618-5.902c-9.85-8.585-19.406-17.468-28.866-26.48a487 487 0 0 0-5.798-5.376L1203 264.5l-2.875-2.656c-3.34-4.47-3.213-8.566-3-14.094 1.19-3.74 2.597-4.567 5.875-6.75 3.286-1.384 6.661-2.436 10.063-3.5q3.307-1.064 6.613-2.133l3.608-1.157a714 714 0 0 0 11.196-3.765c36.834-12.621 74.312-23.347 111.698-34.194 26.627-7.736 53.082-16.063 79.54-24.355a2149 2149 0 0 1 22.354-6.858q19.044-5.747 38.053-11.6l2.395-.738c10.49-3.23 20.978-6.472 31.464-9.716 22.29-6.895 44.58-13.784 66.891-20.609l3.037-.929a55580 55580 0 0 1 27.042-8.264q8.993-2.745 17.984-5.495l2.998-.916a8318 8318 0 0 0 37.091-11.435l1.936-.602a18968 18968 0 0 0 20.533-6.393 2798 2798 0 0 1 41.347-12.521c8.027-2.368 16.032-4.804 24.032-7.257l4.636-1.42a6325 6325 0 0 0 27.177-8.393c37.564-11.688 75.22-23.074 112.886-34.43a49050 49050 0 0 0 19.53-5.894c12.533-3.784 25.053-7.612 37.544-11.536C1989.652-.94 1989.652-.94 1996 0m-73.989 37.781-3.772 1.19-4.122 1.314q-2.145.68-4.291 1.356-4.583 1.449-9.164 2.903c-7.237 2.297-14.478 4.58-21.72 6.864l-4.857 1.532q-20.73 6.54-41.523 12.873l-11.59 3.53-2.894.883c-12.538 3.823-25.057 7.709-37.578 11.587-15.62 4.835-31.246 9.648-46.901 14.37-12.964 3.913-25.907 7.896-38.849 11.88l-3.453 1.062c-12.522 3.855-25.04 7.723-37.547 11.625-12.991 4.052-26.028 7.951-39.073 11.827a1452 1452 0 0 0-28.18 8.718c-9.723 3.108-19.478 6.107-29.237 9.1q-8.466 2.596-16.932 5.199l-3.546 1.09c-11.983 3.682-23.958 7.39-35.933 11.096-16.756 5.187-33.516 10.354-50.308 15.42-19.192 5.795-38.343 11.722-57.5 17.63a27108 27108 0 0 1-14.257 4.391c-31.792 9.743-31.792 9.743-63.472 19.841-31.858 10.385-63.888 20.457-96.312 28.938 2.388 3.101 4.743 5.81 7.75 8.313A128 128 0 0 1 1235 270c3.15 3.193 6.412 6.172 9.813 9.094 2.542 2.215 5.018 4.497 7.5 6.781 4.482 4.088 9.087 7.97 13.808 11.777a405 405 0 0 1 7.668 6.436 296 296 0 0 0 17.008 13.549 529 529 0 0 1 6.844 5.133c22.433 17.083 46.246 32.292 70.203 47.132l2.836 1.758 2.717 1.676c3.279 2.096 6.42 4.364 9.537 6.693 2.826 1.328 4.135.978 7.066-.029 2.536-1.556 2.536-1.556 5.043-3.555 5.93-4.456 12.049-8.534 18.27-12.57l3.43-2.234c24.065-15.651 48.42-30.84 72.881-45.862a2101 2101 0 0 0 26.114-16.343c3.916-2.486 7.84-4.96 11.762-7.436l4.719-2.98 9.812-6.196c9.744-6.148 9.744-6.148 19.469-12.324 7.317-4.663 14.659-9.288 21.996-13.92q7.193-4.54 14.384-9.083 5.88-3.716 11.765-7.427a5395 5395 0 0 0 22.3-14.133A3029 3029 0 0 1 1658 209.5c11.379-7.096 22.697-14.284 34-21.5a4128 4128 0 0 1 37.034-23.392c9.449-5.897 18.846-11.873 28.235-17.865q6.957-4.438 13.918-8.868l2.768-1.761a7471 7471 0 0 1 24.718-15.646q5.915-3.733 11.827-7.468 7.265-4.59 14.531-9.176c9.744-6.148 9.744-6.148 19.469-12.324 7.317-4.663 14.659-9.288 21.996-13.92L1878.5 70l4.75-3 2.375-1.5 9.503-6.002 4.716-2.98a3058 3058 0 0 1 12.398-7.8l2.604-1.632q2.46-1.543 4.925-3.078c3.939-2.473 7.667-5 11.229-8.008-3.381 0-5.764.758-8.989 1.781M1950 58l-2.937 2.422c-7.582 6.221-15.245 12.28-23.123 18.121-5.266 3.918-10.401 7.979-15.509 12.1a556 556 0 0 1-11.869 9.295c-5.638 4.298-11.135 8.759-16.623 13.248a459 459 0 0 1-12.377 9.751c-5.853 4.463-11.526 9.121-17.192 13.818a661 661 0 0 1-15.131 12.131c-4.46 3.482-8.856 7.036-13.239 10.614a992 992 0 0 1-16.71 13.336c-5.162 4.04-10.241 8.175-15.318 12.32a837 837 0 0 1-13.284 10.594 765 765 0 0 0-14.723 11.813c-9.145 7.518-18.332 14.978-27.664 22.264-5.287 4.137-10.49 8.375-15.692 12.618a557 557 0 0 1-12.16 9.633c-3.415 2.68-6.773 5.428-10.137 8.172A918 918 0 0 1 1681 272.5c-5.736 4.48-11.39 9.053-17.028 13.655a836 836 0 0 1-13.284 10.595 750 750 0 0 0-14.774 11.867c-5.366 4.388-10.793 8.7-16.211 13.024q-3.354 2.677-6.703 5.359l-2.36 1.887a7039 7039 0 0 0-6.093 4.883 1954 1954 0 0 1-18.485 14.668c-6.53 5.11-12.963 10.335-19.39 15.574-3.647 2.972-7.32 5.911-11 8.843a1418 1418 0 0 0-8.352 6.77c-5.735 4.675-11.489 9.32-17.32 13.875-10.22 7.993-20.314 16.133-30.125 24.625-9.753 8.418-19.522 16.675-30.875 22.875l2.012 2.008a1861 1861 0 0 1 6.695 6.734l4.105 4.133 2.042 2.066c4.546 4.568 9.251 8.869 14.146 13.059q1.677 1.46 3.352 2.922c8.025 6.952 16.232 13.607 24.648 20.078l2.373 1.83A1238 1238 0 0 0 1565 521l3.598 2.57q2.542 1.817 5.087 3.632c20.01 14.28 39.862 28.765 59.315 43.798l2.247 1.735c8.504 6.573 16.964 13.198 25.342 19.93 4.197 3.372 8.421 6.705 12.661 10.023a717 717 0 0 1 26.98 22.24c2.854 2.464 5.71 4.862 8.77 7.072 2.633-7.575 4.814-15.26 6.984-22.976a1544 1544 0 0 1 13.826-46.238q1.568-4.992 3.112-9.99c5.97-19.31 12.28-38.478 18.917-57.569q2.398-6.9 4.755-13.817c10.14-29.705 20.757-59.34 32.893-88.294 1.864-4.471 3.596-8.975 5.267-13.522 3.25-8.753 6.817-17.362 10.434-25.969l1.982-4.735q2.455-5.859 4.917-11.716 1.284-3.058 2.564-6.119 2.17-5.186 4.349-10.368l1.235-2.952c2.524-5.98 5.21-11.87 7.975-17.742a689 689 0 0 0 6.692-14.77l1.002-2.27q2.026-4.592 4.041-9.19c3.872-8.823 7.87-17.541 12.228-26.136 2.948-5.821 5.66-11.735 8.327-17.69 3.613-7.975 7.402-15.762 11.605-23.44 2.046-3.775 3.984-7.59 5.895-11.435l1.018-2.046a5673 5673 0 0 0 4.7-9.493c9.8-19.764 19.79-39.449 30.771-58.586a449 449 0 0 0 9.448-17.374c6.345-12.257 13.445-24.09 20.483-35.958q1.768-2.985 3.517-5.98l1.903-3.21L1951 60zm-75 34-2.543 1.73c-8.395 5.673-16.93 11.079-25.56 16.385a726 726 0 0 0-16.21 10.26c-7.758 5.06-15.609 9.969-23.471 14.867A2221 2221 0 0 0 1787 148a2545 2545 0 0 1-23 14.5 3520 3520 0 0 0-31.269 19.757q-6.957 4.438-13.918 8.868l-2.768 1.761a7471 7471 0 0 1-24.718 15.646q-5.915 3.733-11.827 7.468l-4.75 3-2.375 1.5-47.5 30-4.757 3.004q-5.88 3.715-11.763 7.426a5395 5395 0 0 0-22.3 14.133 3373 3373 0 0 1-29.064 18.313c-9.518 5.94-18.984 11.96-28.441 17.997a3928 3928 0 0 1-20 12.695c-15.467 9.742-30.895 19.548-46.172 29.584a1155 1155 0 0 1-55.439 34.188l-2.552 1.488-2.212 1.278c-2.543 1.63-4.845 3.475-7.175 5.394a9819 9819 0 0 0 17.305 79.766l.691 3.132a5092 5092 0 0 1 4.387 20.086A2256 2256 0 0 0 1433 566h1l.17-2.453c6.728-97.226 6.728-97.226 9.267-117.047l.298-2.524c.474-3.31 1.015-5.638 3.019-8.347 2.492-1.808 4.917-2.978 7.746-4.192 5.484-2.639 9.606-5.959 13.939-10.133 3.906-3.756 8.02-7.066 12.356-10.325 4.653-3.515 9.155-7.192 13.642-10.916a734 734 0 0 1 17.324-13.95c4.46-3.481 8.856-7.035 13.239-10.613a845 845 0 0 1 14.938-11.937c5.284-4.12 10.467-8.35 15.624-12.625a548 548 0 0 1 18.067-14.317c4.764-3.665 9.364-7.532 13.99-11.368a614 614 0 0 1 13.756-11.065c4.933-3.85 9.808-7.76 14.64-11.735 8.439-6.936 16.879-13.87 25.536-20.531 3.415-2.68 6.773-5.428 10.137-8.172A918 918 0 0 1 1667 261.5c5.736-4.48 11.39-9.053 17.028-13.655a939 939 0 0 1 15.034-11.962 540 540 0 0 0 10.438-8.383 609 609 0 0 1 12.188-9.75 959 959 0 0 0 15.25-12.187c9.343-7.616 18.724-15.183 28.226-22.602 6.595-5.15 13.072-10.43 19.517-15.767a676 676 0 0 1 15.08-12.08c4.46-3.483 8.856-7.036 13.239-10.614a845 845 0 0 1 14.938-11.937c6-4.68 11.872-9.507 17.732-14.36a695 695 0 0 1 15.413-12.347c5.378-4.198 10.658-8.51 15.917-12.856zm-414 368c-1.108 4.662-1.361 9.3-1.648 14.066l-.353 5.54-.184 2.939c-.946 15.035-1.938 30.067-3.19 45.08l-.174 2.09c-1.419 16.835-3.124 33.646-4.826 50.455l-.325 3.246q-.303 3.024-.614 6.048c-.453 4.533-.806 8.972-.686 13.536 5.078-2.314 9.283-5.257 13.688-8.625l2.137-1.62A462 462 0 0 0 1482 579l1.565-1.308c6.414-5.361 12.746-10.792 18.923-16.426a186 186 0 0 1 4.153-3.66c6.544-5.586 12.555-11.69 18.609-17.793l3.258-3.272a5606 5606 0 0 0 5.962-5.995A2442 2442 0 0 1 1541 524l-1.73-1.18c-6.687-4.613-13.146-9.485-19.55-14.479a2143 2143 0 0 0-5.204-4.04c-8.017-6.231-15.823-12.675-23.516-19.301l-1.865-1.604c-7.089-6.099-14.137-12.223-20.987-18.591-2.257-1.897-4.584-3.357-7.148-4.805M1416 617c1 1 1 1 1.371 3.77-.1 6.02-2.99 11.47-5.309 16.918l-1.521 3.639c-1.499 3.564-3.017 7.12-4.541 10.673-.4.943-.8 1.885-1.21 2.856-5.753 13.52-12.524 26.38-19.79 39.144l-1.595 2.807c-13.737 24.033-29.51 47.05-47.405 68.193q-1.286 1.546-2.57 3.094c-9.993 11.994-20.664 23.23-31.68 34.281l-1.43 1.438c-5.598 5.622-11.286 11.038-17.32 16.187a1546 1546 0 0 0-3.64 3.21c-7.003 6.156-14.075 12.08-21.642 17.54-1.98 1.44-3.94 2.908-5.902 4.375-21.622 16.058-21.622 16.058-34.125 20.453-8.978 3.068-8.978 3.068-14.775 10.294-1.104 2.622-2.096 5.277-3.066 7.952-1.546 3.958-3.547 7.678-5.537 11.426l-1.282 2.426C1183.975 914.557 1172.9 930.278 1162 946l-1.674 2.417c-5.726 8.247-11.586 16.35-17.76 24.267-2.403 3.087-4.743 6.219-7.078 9.358-7.448 10.007-15.316 19.608-23.394 29.112a659 659 0 0 0-8.844 10.659c-2.705 3.312-5.416 6.617-8.187 9.875l-1.653 1.949C1092 1035 1092 1035 1090 1035l-.61 1.605c-2.007 3.457-4.777 5.947-7.64 8.707-5.228 5.097-5.228 5.097-10.062 10.563-2.515 3.048-5.354 5.5-8.364 8.05-2.836 2.532-5.48 5.235-8.137 7.95-4.606 4.682-9.413 8.907-14.562 12.996-2.515 2.04-4.88 4.173-7.25 6.379-6.392 5.815-13.306 10.934-20.21 16.117a573 573 0 0 0-6.009 4.606C974.5 1137.153 937.843 1156.878 900 1173l-2.437 1.046c-22.19 9.416-45.962 16.24-69.563 20.954l-5.695 1.184q-2.809.567-5.617 1.129l-2.552.52c-5.468 1.05-10.568 1.318-16.136 1.167l-.509 1.677c-1.749 5.525-3.92 10.545-6.678 15.636l-1.2 2.233c-3.499 6.42-7.395 12.482-11.613 18.454q-1.17 1.695-2.336 3.39c-14.342 20.667-32.013 40.108-52.664 54.61l-2.052 1.45c-20.724 14.512-42.71 26.147-66.948 33.55-1.056.347-2.111.694-3.2 1.05-3.572 1.117-7.164 2.072-10.8 2.95l-2.244.56c-28.114 6.687-61.743 6.467-89.756-.56l-2.698-.65c-36.916-9.067-68.842-28.48-96.302-54.35l-2.559-2.36c-17.934-17.101-30.46-39.565-39.441-62.453l-.918-2.336c-1.173-3.077-2.082-5.53-2.082-8.851l-2.01.58c-29.255 8.398-58.402 14.795-88.99 15.42l-3.95.121c-46.461.774-94.146-8.868-136.05-29.121l-2.39-1.127c-24.426-11.536-46.966-26.572-67.127-44.553a373 373 0 0 0-3.971-3.472C87.392 1130.236 75.834 1118.77 66 1106q-1.293-1.612-2.594-3.219c-11.06-13.738-20.576-28.187-29.173-43.582a433 433 0 0 0-3.315-5.789C21.551 1036.756 14.445 1018.294 9 1000l-.615-2.02C-2.804 960.967-2.804 960.967 0 946c2.599-2.694 3.766-2.975 7.563-3.375C11 943 11 943 12.64 944.228c1.67 2.177 2.038 3.812 2.535 6.506l.56 2.894.576 3.122c10.726 54.354 34.328 112.255 74.993 151.473C93 1110 93 1110 93 1112h2c1.234 1.293 1.234 1.293 2.75 3.188 10.223 11.947 22.625 21.552 35.25 30.812l2.738 2.02A228 228 0 0 0 143 1153l1.599 1.063c17.997 11.87 37.15 21.558 57.401 28.937l1.948.72c20.414 7.469 41.764 11.898 63.24 14.905l2.662.374c43.64 5.852 87.362.06 129.15-12.999l-.048-2.424c-.429-25.176.468-50.095 18.275-69.974 7.285-6.58 14.36-8.95 23.968-8.809 7.995.59 14.161 4.675 19.805 10.207 7.09 8.584 10.6 18.52 9.875 29.688-2.096 15.087-9.32 27.244-21.485 36.542-9.212 6.73-19.09 11.924-29.39 16.77 12.423 42.928 42.108 76.87 80.682 98.73 12.282 6.73 25.001 11.99 38.318 16.27l3.293 1.113c49.33 15.562 101.412 5.847 146.457-17.426 17.936-9.56 33.518-22.825 48.25-36.687l1.996-1.867c14.564-14.06 25.62-31.593 35.736-48.967 1.405-2.4 2.834-4.784 4.268-7.166l-3.994.048c-72.729.79-72.729.79-105.006-14.048l-1.901-.87c-9.883-4.615-17.498-10.34-25.099-18.13l-1.828-1.766c-9.508-9.908-13.575-23.583-13.485-36.984l.018-2.668c.26-14.045 4.309-25.624 14.045-35.957 8.177-7.712 17.38-11.634 28.64-11.621 11.52.586 20.516 3.562 30.61 8.996l.078-2.238c.772-13.807 5.538-25.391 15.922-34.762l1.445-1.457c9.438-9.005 21.51-11.034 34.024-10.82 14.305.607 26.627 7.464 37.531 16.277l1.824 1.418c1.436 1.141 2.813 2.355 4.176 3.582v2h2c17.278 20.128 20.716 46.251 18.793 71.738-1.564 16.515-5.114 33.04-11.793 48.262 40.862-8.758 79.277-19.73 117-38q2.128-1.005 4.258-2.008c18.354-8.767 36.098-19.31 52.742-30.992l4.223-2.926c21.636-15.064 41.969-31.773 61.287-49.702a489 489 0 0 1 4.658-4.224c5.112-4.601 9.963-9.238 14.39-14.52 1.922-2.17 4.18-3.819 6.442-5.628 1.666-1.802 3.254-3.661 4.848-5.527 2.655-3.05 5.4-6.01 8.152-8.973 4.415-4.766 8.776-9.563 13-14.5l2.516-2.918a419 419 0 0 0 15.761-19.516 560 560 0 0 1 6.04-7.789 593 593 0 0 0 21.22-28.681 630 630 0 0 1 4.42-6.237c22.862-30.836 22.862-30.836 40.043-64.859l-3.594-.043c-16.944-.409-31.383-3.474-44.406-14.957-1.352-2.277-1.352-2.277-2-4h-2c-9.584-11.129-14.597-24.578-14.246-39.207 1.017-11.538 6.092-20.366 14.383-28.29 8.656-6.986 18.188-7.092 28.863-6.503 15.27 2.496 29.14 13.34 38.281 25.387 6.66 10.125 9.046 20.082 8.844 32.05l-.027 3.084q-.036 3.74-.098 7.479c26.252-13.155 48.964-30.124 70.629-49.848a358 358 0 0 1 4.648-4.148c5.494-4.835 10.727-9.903 15.91-15.067l2.017-2.002c4.468-4.482 8.666-9.141 12.796-13.935a1589 1589 0 0 1 3.07-3.465c8.103-9.18 15.637-18.701 22.93-28.535l1.673-2.248c7.186-9.686 13.948-19.533 20.181-29.858q1.658-2.735 3.341-5.453c9.597-15.633 18.323-31.776 25.908-48.478a490 490 0 0 1 2.729-5.854l1.793-3.797.866-1.832c1.46-3.123 2.846-6.26 4.138-9.457l.796-1.95c.718-1.776 1.419-3.56 2.118-5.343 1.457-2.73 1.457-2.73 3.465-4.168 2.858-.807 4.413.114 6.992 1.438m-274.812 186.688c-4.968 7.522-6.204 14.296-5.188 23.312 2.68 11.238 9.094 21.127 18.688 27.625 10.73 6.346 22.167 6.833 34.124 3.875 1.734-.484 3.465-.979 5.188-1.5 2.678-13.389 2.552-28.08-4.875-39.812-2.436-3.412-5.004-6.371-8.125-9.188l-1.48-1.492c-6.204-5.924-13.661-8.673-22.207-8.946-6.608.293-11.296 1.51-16.126 6.125M727 1064c-6.161 6.927-9.913 14.737-10.375 24.063.583 6.119 1.78 11.487 6.063 16.062 2.312 2.875 2.312 2.875 2.875 6.5C725 1114 725 1114 723.438 1116.5c-3.52 2.166-5.466 1.43-9.438.5a68 68 0 0 1-6.437-4.562c-11.344-8.55-26.802-18.078-41.563-16.438-5.783 1.316-11.206 3.229-15 8-6.41 10.67-9.795 21.035-7.312 33.434 1.936 7.495 4.456 13.533 9.312 19.566l2.316 2.969c16.893 20.095 47.362 23.637 71.684 26.031l2.139.218c19.277 1.89 38.665 1.022 57.861-1.218 2.568-5.536 4.812-11.028 6.563-16.875l.637-2.101a919 919 0 0 0 1.24-4.144c.48-1.613.976-3.222 1.474-4.83 6.77-22.875 6.86-50.39-3.914-72.05-8.518-13.892-20.04-24.717-36-29-11.31-2.31-21.295.328-30 8m-301.848 66.332c-6.797 9.838-9.712 22.84-10.152 34.668l-.121 2.914c-.195 6.32-.195 6.32 2.121 12.086 13.623-6.364 29.997-14.396 36.309-28.945 2.43-7.22 1.785-12.537-1.059-19.598-1.671-3.285-3.405-5.136-6.25-7.457l-2-2c-8.35-1.436-13.725 1.703-18.848 8.332"/></svg>