<svg xmlns="http://www.w3.org/2000/svg" fill-rule="evenodd" stroke-linejoin="round" stroke-miterlimit="2" clip-rule="evenodd" viewBox="0 0 64 64" id="github">
  <path d="M32 5C17.1 5 5 17.098 5 32s12.1 27 27 27c14.902 0 27-12.098 27-27S46.903 5 32 5zm0 2C45.8 7 57 18.202 57 32S45.8 57 32 57C18.203 57 7 45.798 7 32S18.202 7 32 7z"></path>
  <path d="M27.42 39.965c-.676 1.472-1.212 3.152-1.371 4.947l-.004.343c-1.803-.049-4.07-.543-5.15-2.702-.5-1.002-1.115-1.64-1.756-2.04-1.068-.669-2.24-.695-3.265-.454-1.389.325-2.473 1.141-2.473 1.141a1 1 0 0 0 .6 1.8c1.076 0 1.55.807 2.006 1.704.682 1.34 1.259 2.931 2.331 4.003 1.894 1.893 5.207 2.4 7.686 2.448l-.023 6.842 2 .006.027-7.85a.998.998 0 0 0-1.03-1.003c-2.07.062-5.451-.063-7.245-1.857-.522-.522-.879-1.208-1.209-1.902-.399-.835-.756-1.687-1.203-2.39a5.299 5.299 0 0 0-.831-1.032c.503-.093 1.06-.079 1.569.24.383.238.728.64 1.028 1.238 1.698 3.397 5.51 3.913 7.982 3.795a1 1 0 0 0 .952-.996l.004-1.199c.194-2.1.99-4.014 1.862-5.554a1 1 0 0 0-.87-1.493h-.636c-5.137 0-9.4-3.25-9.4-7.4v-1.292c0-2.674 1.294-5.1 3.378-6.92a.998.998 0 0 0 .267-1.135c-.74-1.794-.707-3.71-.581-4.886 1.098.486 2.81 1.438 3.996 3.02a.999.999 0 0 0 1.104.353 15.914 15.914 0 0 1 4.836-.74c1.707 0 3.338.262 4.836.74a.999.999 0 0 0 1.104-.353c1.186-1.582 2.898-2.534 3.996-3.02.126 1.176.16 3.092-.58 4.886a.998.998 0 0 0 .266 1.134c2.084 1.821 3.378 4.247 3.378 6.921V30.6c0 4.15-4.263 7.4-9.4 7.4h-.636a1 1 0 0 0-.87 1.493c1.002 1.77 1.906 4.034 1.906 6.507v12h2V46c0-2.204-.609-4.27-1.419-6.035 5.876-.413 10.42-4.508 10.42-9.365v-1.292c0-3.023-1.327-5.803-3.553-7.957 1.06-3.249.25-6.588.25-6.588a1.001 1.001 0 0 0-1.252-.723s-3.374.99-5.661 3.6a18.005 18.005 0 0 0-4.785-.64c-1.674 0-3.284.225-4.786.64-2.286-2.61-5.66-3.6-5.66-3.6a1.001 1.001 0 0 0-1.251.723s-.811 3.34.249 6.588c-2.226 2.154-3.552 4.934-3.552 7.957V30.6c0 4.857 4.543 8.952 10.419 9.365z"></path>
</svg>
