<!-- <svg xmlns="http://www.w3.org/2000/svg" viewBox="0 0 24 24" id="TailwindCss">
  <path d="M18.5 9.51a4.22 4.22 0 0 1-1.91-1.34A5.77 5.77 0 0 0 12 6a4.72 4.72 0 0 0-5 4 3.23 3.23 0 0 1 3.5-1.49 4.32 4.32 0 0 1 1.91 1.35A5.77 5.77 0 0 0 17 12a4.72 4.72 0 0 0 5-4 3.2 3.2 0 0 1-3.5 1.51zm-13 4.98a4.22 4.22 0 0 1 1.91 1.34A5.77 5.77 0 0 0 12 18a4.72 4.72 0 0 0 5-4 3.23 3.23 0 0 1-3.5 1.49 4.32 4.32 0 0 1-1.91-1.35A5.8 5.8 0 0 0 7 12a4.72 4.72 0 0 0-5 4 3.2 3.2 0 0 1 3.5-1.51z" fill="#000000" class="color000000 svgShape"></path>
</svg> -->
<svg xmlns="http://www.w3.org/2000/svg" fill="none" viewBox="0 0 54 33"><g clip-path="url(#prefix__clip0)"><path fill="#38bdf8" fill-rule="evenodd" d="M27 0c-7.2 0-11.7 3.6-13.5 10.8 2.7-3.6 5.85-4.95 9.45-4.05 2.054.513 3.522 2.004 5.147 3.653C30.744 13.09 33.808 16.2 40.5 16.2c7.2 0 11.7-3.6 13.5-10.8-2.7 3.6-5.85 4.95-9.45 4.05-2.054-.513-3.522-2.004-5.147-3.653C36.756 3.11 33.692 0 27 0zM13.5 16.2C6.3 16.2 1.8 19.8 0 27c2.7-3.6 5.85-4.95 9.45-4.05 2.054.514 3.522 2.004 5.147 3.653C17.244 29.29 20.308 32.4 27 32.4c7.2 0 11.7-3.6 13.5-10.8-2.7 3.6-5.85 4.95-9.45 4.05-2.054-.513-3.522-2.004-5.147-3.653C23.256 19.31 20.192 16.2 13.5 16.2z" clip-rule="evenodd"/></g><defs><clipPath id="prefix__clip0"><path fill="#fff" d="M0 0h54v32.4H0z"/></clipPath></defs></svg>