<?xml version="1.0" encoding="UTF-8"?>
<svg version="1.1" xmlns="http://www.w3.org/2000/svg" width="2000" height="1338">
<path d="M0 0 C2.72346162 2.10025509 3.85041406 3.35760641 4.63671875 6.734375 C4.65347656 7.72953125 4.67023437 8.7246875 4.6875 9.75 C4.73261719 10.73484375 4.77773437 11.7196875 4.82421875 12.734375 C3.78420831 16.8549851 1.82419267 18.66826626 -1.03686523 21.71923828 C-4.64185769 25.90750337 -7.17229165 30.76375185 -9.875 35.5625 C-11.11127469 37.72045582 -12.3482517 39.87800945 -13.5859375 42.03515625 C-14.17600586 43.06914551 -14.76607422 44.10313477 -15.37402344 45.16845703 C-17.36864401 48.64197196 -19.42083188 52.07668314 -21.5 55.5 C-31.50753171 72.08034482 -41.11790896 88.88557876 -50.5390625 105.8046875 C-52.84686292 109.94672613 -55.17503696 114.07615798 -57.5234375 118.1953125 C-62.74184511 127.35059488 -67.85550007 136.47786501 -72.46484375 145.95703125 C-74.00647658 149.01283779 -75.68377636 151.93643399 -77.4375 154.875 C-81.27242869 161.33472433 -84.57972719 168.00799652 -87.88916016 174.74609375 C-89.9069779 178.84026814 -91.95609554 182.91880566 -94 187 C-94.85423425 188.70960165 -95.70840166 190.4192367 -96.5625 192.12890625 C-98.05708026 195.11865059 -99.55622411 198.10597594 -101.0625 201.08984375 C-105.26135738 209.42037678 -109.30888842 217.81455299 -113.30004883 226.24658203 C-115.69890808 231.30378482 -118.15139956 236.32281866 -120.6875 241.3125 C-130.55005429 260.842818 -139.54991211 280.82444857 -148.4375 300.8125 C-148.76016846 301.53715454 -149.08283691 302.26180908 -149.4152832 303.00842285 C-154.07996259 313.49768335 -158.57385209 324.05305232 -163.00912476 334.64108276 C-164.60271817 338.43485497 -166.21415692 342.22100806 -167.82421875 346.0078125 C-176.5430879 366.54936576 -184.95071451 387.18722697 -193 408 C-193.69198486 409.78664063 -193.69198486 409.78664063 -194.39794922 411.609375 C-196.90612565 418.09193459 -199.39903289 424.58017943 -201.87988281 431.07324219 C-202.96458994 433.90747694 -204.0556662 436.73917874 -205.1484375 439.5703125 C-208.70684601 448.81274615 -212.13218417 458.0860329 -215.3671875 467.44677734 C-217.09892457 472.45270114 -218.88704427 477.43262587 -220.7265625 482.39990234 C-229.67975997 506.62539854 -237.58307669 531.26842751 -245.33789062 555.89971924 C-246.09726094 558.30852194 -246.85914267 560.71652413 -247.62109375 563.12451172 C-249.52463073 569.14349923 -251.42092991 575.1647413 -253.3125 581.1875 C-253.63646759 582.21900177 -253.96043518 583.25050354 -254.29421997 584.31326294 C-259.30642261 600.30218155 -264.09452675 616.34417668 -268.5871582 632.48706055 C-268.79764297 633.23322632 -269.00812775 633.97939209 -269.22499084 634.74816895 C-269.7846394 636.73253061 -270.33649739 638.71908495 -270.88769531 640.70581055 C-272.45890929 645.35910075 -273.66015978 648.24633988 -278 650.6875 C-278.99 651.120625 -279.98 651.55375 -281 652 C-281.99 652.66 -282.98 653.32 -284 654 C-289.47295788 653.7944429 -292.5075293 652.37522531 -296.75 649 C-297.26312744 648.59700684 -297.77625488 648.19401367 -298.30493164 647.77880859 C-299.88193461 646.53338558 -301.44190929 645.26896561 -303 644 C-304.36705078 642.90558594 -304.36705078 642.90558594 -305.76171875 641.7890625 C-308.52927397 639.55077696 -311.26837107 637.28197808 -314 635 C-314.5170752 634.56929199 -315.03415039 634.13858398 -315.56689453 633.69482422 C-321.35801597 628.86453808 -327.07080831 623.97821031 -332.625 618.875 C-337.00414662 614.85656344 -341.51504333 611.0625498 -346.140625 607.33203125 C-348.63757187 605.29558687 -351.09135642 603.21755809 -353.53369141 601.11621094 C-361.00169536 594.70458926 -368.76814658 588.73383099 -376.62109375 582.80371094 C-379.14121696 580.89292786 -381.6496639 578.96756485 -384.15625 577.0390625 C-393.63280397 569.75810447 -403.18932166 562.65144273 -412.9921875 555.81640625 C-417.04451858 552.98569031 -421.02580583 550.06399239 -425 547.125 C-430.23352666 543.25819921 -435.52278668 539.51788498 -441 536 C-444.1083465 539.00807726 -447.01412082 542.13014649 -449.875 545.375 C-458.67479548 555.18677196 -467.90152451 564.65372558 -478.2578125 572.828125 C-481.40003155 575.31683411 -484.45023676 577.89962388 -487.5 580.5 C-496.92554806 588.50024151 -506.52266627 596.23971019 -516.3515625 603.73828125 C-517.96830394 604.97573975 -519.57891641 606.22071101 -521.1875 607.46875 C-524.44586699 609.99564685 -527.71925983 612.50223727 -531 615 C-531.61697754 615.47147461 -532.23395508 615.94294922 -532.86962891 616.42871094 C-551.05255682 630.26704545 -551.05255682 630.26704545 -559.375 631.5 C-562.46353943 630.91170678 -563.70794651 630.13731327 -566 628 C-567.01391602 625.51196289 -567.01391602 625.51196289 -567.75390625 622.47265625 C-568.19077759 620.73036743 -568.19077759 620.73036743 -568.63647461 618.95288086 C-568.94206299 617.66905518 -569.24765137 616.38522949 -569.5625 615.0625 C-569.90032991 613.69178193 -570.23964754 612.32142982 -570.58032227 610.95141602 C-571.32701412 607.93977805 -572.06500046 604.92616759 -572.79785156 601.91113281 C-574.0525282 596.76413357 -575.34828818 591.62785881 -576.6484375 586.4921875 C-579.46895712 575.33714877 -582.24746651 564.17200243 -585 553 C-585.20322876 552.17566467 -585.40645752 551.35132935 -585.61584473 550.50201416 C-595.10114476 511.96541639 -603.26609146 473.11208447 -610 434 C-610.24343733 432.60006025 -610.48709492 431.20015879 -610.73095703 429.80029297 C-611.33913052 426.30355126 -611.94029913 422.80567589 -612.53549194 419.30670166 C-612.86444066 417.37452344 -613.19645193 415.44286739 -613.52856445 413.51123047 C-613.72281006 412.34865723 -613.91705566 411.18608398 -614.1171875 409.98828125 C-614.28847168 408.97290283 -614.45975586 407.95752441 -614.63623047 406.91137695 C-615.0111979 403.91037919 -615.06348361 401.02108931 -615 398 C-615.66 398 -616.32 398 -617 398 C-617.76376953 397.16082031 -617.76376953 397.16082031 -618.54296875 396.3046875 C-622.03570798 393.02850921 -626.04783391 391.24599916 -630.3125 389.125 C-654.5839825 376.71210008 -677.5866638 361.59359588 -699.36816406 345.22314453 C-700.91298065 344.06522546 -702.46793096 342.92086212 -704.0234375 341.77734375 C-711.93464182 335.93408158 -719.54946113 329.75037278 -727.15039062 323.51318359 C-728.78681499 322.17440875 -730.43184381 320.84616648 -732.078125 319.51953125 C-737.7109988 314.97299739 -743.11618957 310.23871172 -748.4453125 305.33984375 C-750.62697815 303.34165152 -752.83011309 301.37851111 -755.0625 299.4375 C-764.91291644 290.85300053 -774.46904821 281.97025 -783.92871094 272.95849609 C-785.84451979 271.14701347 -787.78165803 269.36214008 -789.7265625 267.58203125 C-790.81851524 266.55554519 -791.90971474 265.528257 -793 264.5 C-793.94875 263.6234375 -794.8975 262.746875 -795.875 261.84375 C-799.21548443 257.37339583 -799.08763211 253.27843476 -798.875 247.75 C-797.68504719 244.01014831 -796.27845653 243.18286051 -793 241 C-789.71410276 239.61557077 -786.33854441 238.56431483 -782.9375 237.5 C-780.73273845 236.79010044 -778.52833225 236.07909662 -776.32421875 235.3671875 C-775.1336084 234.98530273 -773.94299805 234.60341797 -772.71630859 234.20996094 C-768.97138565 232.9906837 -765.24360835 231.72634769 -761.51953125 230.4453125 C-724.68637513 217.8238917 -687.20843857 207.09806309 -649.82196045 196.25119019 C-623.19547171 188.51531488 -596.7404267 180.18823094 -570.28283691 171.89620972 C-562.8444392 169.56537759 -555.39121318 167.28756447 -547.92791748 165.03781128 C-535.23202981 161.20872284 -522.5487396 157.3392297 -509.875 153.4375 C-509.08453278 153.19414917 -508.29406555 152.95079834 -507.47964478 152.70007324 C-496.98919229 149.46941725 -486.50196149 146.22836291 -476.015625 142.984375 C-453.7264585 136.08928063 -431.4357785 129.19990232 -409.125 122.375 C-408.12292511 122.06844482 -407.12085022 121.76188965 -406.08840942 121.44604492 C-397.07510971 118.6890889 -388.06108785 115.93449903 -379.04638672 113.18212891 C-373.05141689 111.35170069 -367.05681806 109.5200615 -361.0625 107.6875 C-360.07314453 107.38510406 -359.08378906 107.08270813 -358.06445312 106.77114868 C-345.69165437 102.98782523 -333.32766897 99.17695873 -320.97265625 95.3359375 C-320.33402964 95.13744768 -319.69540302 94.93895786 -319.03742409 94.7344532 C-312.19188521 92.60672603 -305.34727331 90.47606386 -298.50415039 88.34057617 C-284.75335637 84.05572584 -270.97200115 79.89163453 -257.15673828 75.81958008 C-249.13018366 73.45243633 -241.1253482 71.01648278 -233.125 68.5625 C-231.57968282 68.08948034 -230.03435373 67.61649959 -228.48901367 67.14355469 C-219.4235191 64.36702291 -210.36542244 61.56727477 -201.3125 58.75 C-163.74849285 47.06157108 -126.09122981 35.67566202 -88.42578125 24.31933594 C-82.82520361 22.63060763 -77.22497309 20.94073194 -71.625 19.25 C-70.72466034 18.97823944 -69.82432068 18.70647888 -68.896698 18.42648315 C-56.36266675 14.64160927 -43.84324337 10.8138322 -31.35205078 6.88964844 C-6.34775859 -0.94040868 -6.34775859 -0.94040868 0 0 Z M-73.98876953 37.78149414 C-75.23373703 38.17411438 -76.47870453 38.56673462 -77.76139832 38.97125244 C-79.13521504 39.40918274 -80.5090194 39.84715184 -81.8828125 40.28515625 C-83.31316415 40.73762802 -84.74365313 41.18966588 -86.17427063 41.64129639 C-89.22967915 42.60657097 -92.28430817 43.57425877 -95.33834839 44.54385376 C-102.57516275 46.84097491 -109.81629419 49.12442114 -117.05745506 51.40779686 C-118.67677187 51.91843556 -120.29604581 52.42921021 -121.91527748 52.94011879 C-135.73505962 57.30009366 -149.57471329 61.59105102 -163.4375 65.8125 C-167.30080524 66.98950462 -171.16409698 68.16655349 -175.02734375 69.34375 C-176.46022736 69.78022858 -176.46022736 69.78022858 -177.92205811 70.2255249 C-190.46003867 74.04890934 -202.97871636 77.9348727 -215.5 81.8125 C-231.12025364 86.6483681 -246.74621477 91.46096065 -262.40136719 96.18261719 C-275.36517945 100.09605591 -288.30757807 104.07898036 -301.25 108.0625 C-302.38952118 108.41317535 -303.52904236 108.76385071 -304.70309448 109.12515259 C-317.22521511 112.97951233 -329.74266456 116.84794655 -342.25 120.75 C-355.24134098 124.80242535 -368.2784029 128.70098648 -381.32324219 132.57714844 C-390.74935957 135.38431084 -400.13579082 138.29679157 -409.50292969 141.29486084 C-419.22566994 144.40262755 -428.98077022 147.40228918 -438.73959351 150.39447021 C-444.38439548 152.12525768 -450.02810636 153.85959655 -455.671875 155.59375 C-457.42711739 156.13296585 -457.42711739 156.13296585 -459.21781921 156.68307495 C-471.20068162 160.36585054 -483.17594461 164.0730914 -495.15124512 167.78036499 C-511.90676698 172.96697666 -528.66692356 178.13416116 -545.45922852 183.20043945 C-564.65085349 188.9952426 -583.80230648 194.92211481 -602.95947266 200.82958984 C-607.7113371 202.29480535 -612.46363855 203.75859114 -617.21630859 205.22119141 C-649.00791009 214.96405808 -649.00791009 214.96405808 -680.6875 225.0625 C-712.54646305 235.44710257 -744.57598807 245.51907822 -777 254 C-774.612207 257.10096126 -772.25655085 259.80911158 -769.25 262.3125 C-766.37187287 264.76956779 -763.65235621 267.30065323 -761 270 C-757.8501997 273.19261312 -754.58780511 276.17161279 -751.1875 279.09375 C-748.64488601 281.30945648 -746.16889802 283.59098592 -743.6875 285.875 C-739.2047171 289.96315001 -734.60046208 293.84420412 -729.87890625 297.65234375 C-727.2904277 299.76316547 -724.74639096 301.914094 -722.21118164 304.08789062 C-716.68829788 308.81828596 -711.06030982 313.32049486 -705.203125 317.63671875 C-702.90682005 319.33094375 -700.62762108 321.0386576 -698.359375 322.76953125 C-675.9256172 339.85300235 -652.11315062 355.06202917 -628.15551758 369.90185547 C-627.2198999 370.48209473 -626.28428223 371.06233398 -625.3203125 371.66015625 C-624.42344727 372.2133252 -623.52658203 372.76649414 -622.60253906 373.33642578 C-619.32436507 375.43187396 -616.18210131 377.70026016 -613.06591797 380.02905273 C-610.24001561 381.35718009 -608.93093796 381.00681929 -606 380 C-603.4640558 378.44371963 -603.4640558 378.44371963 -600.95703125 376.4453125 C-595.02765977 371.98861482 -588.90842881 367.91129331 -582.6875 363.875 C-581.54372129 363.13046519 -580.40000502 362.38583446 -579.25634766 361.64111328 C-555.19183546 345.98981968 -530.83723927 330.80013938 -506.37573242 315.77880859 C-497.62674794 310.40018876 -488.93129613 304.94176857 -480.26220703 299.43554688 C-476.34575471 296.95025228 -472.42243857 294.47583136 -468.5 292 C-466.92705626 291.00655328 -465.3541396 290.01306369 -463.78125 289.01953125 C-460.5107418 286.95391167 -457.23985975 284.88888559 -453.96875 282.82421875 C-444.22544013 276.67620994 -444.22544013 276.67620994 -434.5 270.5 C-427.18296284 265.83651798 -419.84135441 261.2118344 -412.50390625 256.58056641 C-407.70874897 253.55367013 -402.91456337 250.52523511 -398.12036133 247.49682617 C-394.19944681 245.02018416 -390.27803828 242.54433255 -386.35546875 240.0703125 C-378.91240584 235.37456837 -371.47591103 230.66913243 -364.0559082 225.93701172 C-355.396969 220.41507897 -346.71467771 214.93358504 -338 209.5 C-326.62102773 202.40428353 -315.30290508 195.21609405 -304 188 C-291.69220507 180.14235587 -279.356347 172.3345421 -266.96582031 164.60791016 C-257.51721386 158.71055007 -248.11950417 152.73504157 -238.73095703 146.74267578 C-234.0935778 143.78347562 -229.45323512 140.82893373 -224.8125 137.875 C-223.89927979 137.29371338 -222.98605957 136.71242676 -222.04516602 136.11352539 C-213.81768474 130.87919195 -205.5745664 125.66984449 -197.32666016 120.46777344 C-193.38339756 117.98016644 -189.44178256 115.48995129 -185.5 113 C-180.6566592 109.94075761 -175.81308906 106.88188021 -170.96875 103.82421875 C-161.22544013 97.67620994 -161.22544013 97.67620994 -151.5 91.5 C-144.18296284 86.83651798 -136.84135441 82.2118344 -129.50390625 77.58056641 C-125.50211984 75.05447775 -121.50108594 72.52719792 -117.5 70 C-115.91667054 68.99999387 -114.3333372 67.99999388 -112.75 67 C-111.96625 66.505 -111.1825 66.01 -110.375 65.5 C-103.25 61 -103.25 61 -100.87158203 59.49804688 C-99.29939398 58.50494971 -97.72745097 57.51146451 -96.15576172 56.51757812 C-92.02890322 53.90861503 -87.89712125 51.30792206 -83.7578125 48.71875 C-82.46907227 47.91050781 -82.46907227 47.91050781 -81.15429688 47.0859375 C-79.51393908 46.05738883 -77.87209806 45.03120042 -76.22851562 44.0078125 C-72.29037131 41.53494478 -68.56159742 39.00820181 -65 36 C-68.38128358 36 -70.76400566 36.75822509 -73.98876953 37.78149414 Z M-46 58 C-47.4540625 59.19882812 -47.4540625 59.19882812 -48.9375 60.421875 C-56.5190084 66.64316317 -64.18184135 72.70214364 -72.05981445 78.54345703 C-77.32613271 82.46080893 -82.46126073 86.52173556 -87.56884766 90.64306641 C-91.48396598 93.79888905 -95.43826971 96.88882568 -99.4375 99.9375 C-105.07619131 104.23605391 -110.57283486 108.69654643 -116.06054688 113.18554688 C-120.13472374 116.50973145 -124.25168648 119.75502755 -128.4375 122.9375 C-134.29106576 127.40011944 -139.96415376 132.05812613 -145.63037109 136.75537109 C-150.61405871 140.87953208 -155.65925643 144.91042501 -160.76147461 148.88647461 C-165.22067108 152.36845239 -169.61725331 155.92240807 -174 159.5 C-179.52333657 164.00767214 -185.09184597 168.44842767 -190.7109375 172.8359375 C-195.87151595 176.87566633 -200.95096403 181.01144049 -206.02807617 185.15527344 C-210.42039266 188.73384318 -214.84851744 192.26132067 -219.3125 195.75 C-224.27149653 199.62693327 -229.17297445 203.56423009 -234.03515625 207.5625 C-243.18031359 215.08104833 -252.36736371 222.54084115 -261.69921875 229.82666016 C-266.98584919 233.9643496 -272.188848 238.20175758 -277.390625 242.4453125 C-281.4019514 245.71380068 -285.4499549 248.92244148 -289.55078125 252.078125 C-292.96584697 254.75788949 -296.32393141 257.50603615 -299.6875 260.25 C-304.7542833 264.38268359 -309.8461488 268.47639881 -315 272.5 C-320.73644518 276.97906358 -326.38982151 281.55344767 -332.02807617 286.15527344 C-336.42039076 289.73384163 -340.84845308 293.26140491 -345.3125 296.75 C-350.29177754 300.64142647 -355.20617492 304.60109971 -360.0859375 308.6171875 C-365.45217973 313.00513356 -370.87913612 317.31765025 -376.29736328 321.64111328 C-378.53311673 323.42548433 -380.76667208 325.21259446 -383 327 C-384.16789062 327.93392578 -384.16789062 327.93392578 -385.359375 328.88671875 C-387.39160907 330.51310726 -389.42269738 332.1408902 -391.453125 333.76953125 C-397.59083223 338.68978905 -403.74080488 343.59168442 -409.9375 348.4375 C-416.46783008 353.54746467 -422.90127029 358.77256242 -429.328125 364.01171875 C-432.97541594 366.98416829 -436.64864301 369.92299568 -440.328125 372.85546875 C-443.1229819 375.09870916 -445.90193625 377.36064636 -448.6796875 379.625 C-454.41515805 384.29994958 -460.16867821 388.9450117 -466 393.5 C-476.22020687 401.49347419 -486.31361852 409.63331842 -496.125 418.125 C-505.87788002 426.54302734 -515.6472977 434.80048285 -527 441 C-526.33613281 441.66257812 -525.67226562 442.32515625 -524.98828125 443.0078125 C-522.74954894 445.24575736 -520.52025255 447.49285138 -518.29296875 449.7421875 C-516.9245318 451.11984395 -515.55604103 452.49744694 -514.1875 453.875 C-513.51396484 454.55691406 -512.84042969 455.23882812 -512.14648438 455.94140625 C-507.60029374 460.50934899 -502.89480678 464.80982955 -498 469 C-496.88231151 469.97338337 -495.76510011 470.94731491 -494.6484375 471.921875 C-486.62342485 478.87357101 -478.41615457 485.5290981 -470 492 C-469.21705566 492.60360352 -468.43411133 493.20720703 -467.62744141 493.82910156 C-455.57471698 503.10967625 -443.3859133 512.16966433 -431 521 C-429.80071472 521.8566777 -428.60149252 522.71344373 -427.40234375 523.5703125 C-425.70701327 524.78119384 -424.0114912 525.99180294 -422.31542969 527.20166016 C-402.30453503 541.48127916 -382.45297939 555.96714772 -363 571 C-362.25862793 571.57250488 -361.51725586 572.14500977 -360.75341797 572.73486328 C-352.24927446 579.30847368 -343.78939139 585.93272492 -335.41064453 592.66552734 C-331.21388704 596.0366932 -326.98961634 599.37044643 -322.75 602.6875 C-313.56939919 609.88448069 -304.58825593 617.29156019 -295.76953125 624.92749023 C-292.91554856 627.39240505 -290.05995034 629.78961819 -287 632 C-284.36746366 624.42508897 -282.18580394 616.74034765 -280.01565552 609.02416992 C-275.65115458 593.53126231 -271.03704404 578.13581085 -266.19042969 562.78613281 C-265.14413947 559.45843211 -264.10822687 556.1278394 -263.07785034 552.79519653 C-257.10723405 533.48560143 -250.7983724 514.31800258 -244.16094971 495.22746277 C-242.56144247 490.62657216 -240.9783033 486.02050486 -239.40625 481.41015625 C-229.26573906 451.70512665 -218.64921382 422.07016955 -206.5125885 393.11575317 C-204.64908126 388.64478025 -202.91650739 384.14139856 -201.24609375 379.59375 C-197.99535977 370.84088758 -194.4288415 362.23188814 -190.8125 353.625 C-190.15152582 352.04670074 -189.49072097 350.46833056 -188.83007812 348.88989258 C-187.19407455 344.98350904 -185.55412294 341.07879634 -183.91314697 337.17449951 C-183.05685746 335.13539607 -182.20247207 333.09551045 -181.34912109 331.05517578 C-179.90275019 327.5978723 -178.45227347 324.14232751 -177 320.6875 C-176.59241455 319.71312988 -176.1848291 318.73875977 -175.76489258 317.73486328 C-173.24065091 311.75561387 -170.5542529 305.86446146 -167.79039001 299.99319458 C-165.49354374 295.09805706 -163.27870986 290.17038505 -161.09765625 285.22265625 C-160.7671225 284.47360519 -160.43658875 283.72455414 -160.09603882 282.95280457 C-158.74624097 279.89104955 -157.39827476 276.82850906 -156.05493164 273.76391602 C-152.18346768 264.9396838 -148.18524823 256.2219057 -143.82655334 247.62686157 C-140.87855314 241.80575653 -138.16740745 235.89217343 -135.5 229.9375 C-131.88668222 221.96207449 -128.09765767 214.17471779 -123.89453125 206.49609375 C-121.84923175 202.72177818 -119.91051544 198.90619252 -118 195.0625 C-117.66395752 194.38711182 -117.32791504 193.71172363 -116.98168945 193.01586914 C-115.41098762 189.85364392 -113.84604453 186.68859007 -112.28125 183.5234375 C-102.48115251 163.75894918 -92.49266929 144.07399963 -81.51074219 124.93701172 C-78.22723239 119.20874804 -75.09050877 113.429422 -72.0625 107.5625 C-65.71825015 95.30560869 -58.61779085 83.47241806 -51.57958984 71.60498047 C-50.40069556 69.61540063 -49.23063876 67.62090513 -48.0625 65.625 C-47.43472656 64.56539063 -46.80695313 63.50578125 -46.16015625 62.4140625 C-45.77730469 61.61742187 -45.39445312 60.82078125 -45 60 C-45.33 59.34 -45.66 58.68 -46 58 Z M-121 92 C-122.25876953 92.85658203 -122.25876953 92.85658203 -123.54296875 93.73046875 C-131.93762885 99.40346913 -140.47205187 104.80877701 -149.10302734 110.11450195 C-154.55104805 113.46890232 -159.95499704 116.87800342 -165.3125 120.375 C-173.07146568 125.43588339 -180.92182172 130.34376608 -188.78442383 135.24169922 C-195.54684759 139.45763698 -202.2833642 143.7115322 -209 148 C-216.63988961 152.87689142 -224.30845901 157.70499224 -232 162.5 C-242.46267755 169.0242328 -252.87555752 175.62354311 -263.26904297 182.25732422 C-267.9064222 185.21652438 -272.54676488 188.17106627 -277.1875 191.125 C-278.55733032 191.99692993 -278.55733032 191.99692993 -279.95483398 192.88647461 C-288.18231526 198.12080805 -296.4254336 203.33015551 -304.67333984 208.53222656 C-308.61660245 211.01983357 -312.55820768 213.51006414 -316.5 216 C-318.0833256 217.00001224 -319.66665893 218.00001225 -321.25 219 C-322.03375 219.495 -322.8175 219.99 -323.625 220.5 C-368.75 249 -368.75 249 -371.12426758 250.49951172 C-372.71007325 251.50109035 -374.29584791 252.50271808 -375.8815918 253.50439453 C-379.80184757 255.98064184 -383.72261107 258.45607701 -387.64453125 260.9296875 C-395.08759416 265.62543163 -402.52408897 270.33086757 -409.9440918 275.06298828 C-419.59982837 281.22059336 -429.29133913 287.317292 -439.00927734 293.3762207 C-448.52722646 299.31623204 -457.99347248 305.33594647 -467.45019531 311.37280273 C-474.10661627 315.62070063 -480.76827265 319.85994345 -487.45019531 324.06762695 C-502.91660777 333.80966111 -518.34478174 343.61555502 -533.62231445 353.65161133 C-551.77808148 365.57228708 -570.26142164 376.96184823 -589.06079102 387.84033203 C-589.90311279 388.33130371 -590.74543457 388.82227539 -591.61328125 389.328125 C-592.34329346 389.7499707 -593.07330566 390.17181641 -593.82543945 390.60644531 C-596.36837851 392.23607326 -598.67002346 394.08122586 -601 396 C-595.7866323 420.49833559 -590.49371225 444.978035 -585.09301758 469.43579102 C-584.6271108 471.54573456 -584.16120908 473.65567921 -583.6953125 475.765625 C-583.35287758 477.31611794 -583.35287758 477.31611794 -583.00352478 478.89793396 C-581.52702015 485.59033626 -580.06665742 492.28606995 -578.6171875 498.984375 C-573.7565329 521.41189072 -568.5420289 543.73090423 -563 566 C-562.67 566 -562.34 566 -562 566 C-561.94402145 565.19044861 -561.88804291 564.38089722 -561.83036804 563.54681396 C-555.10173568 466.32119791 -555.10173568 466.32119791 -552.5625 446.5 C-552.46437012 445.66710449 -552.36624023 444.83420898 -552.26513672 443.97607422 C-551.79054607 440.66682447 -551.25030501 438.33838562 -549.24609375 435.62890625 C-546.75363807 433.82133405 -544.32930625 432.65060308 -541.5 431.4375 C-536.01581544 428.79844392 -531.89446668 425.47834129 -527.5612793 421.30371094 C-523.65538996 417.54831451 -519.54054833 414.23809404 -515.20507812 410.97924805 C-510.55195506 407.46405747 -506.04951457 403.78677234 -501.5625 400.0625 C-495.85122951 395.32706922 -490.0903855 390.67375493 -484.23852539 386.11352539 C-479.7793303 382.63154869 -475.38269875 379.07764909 -471 375.5 C-466.0605812 371.46789372 -461.09188393 367.48179143 -456.0625 363.5625 C-450.77838978 359.44336657 -445.59537966 355.21343564 -440.4375 350.9375 C-434.51088013 346.02517407 -428.49904844 341.2801754 -422.37109375 336.62109375 C-417.60698509 332.95606453 -413.00678915 329.08919802 -408.38037109 325.25317383 C-403.84444023 321.49914131 -399.26696823 317.80951017 -394.625 314.1875 C-389.69178004 310.33810923 -384.81744672 306.42825499 -379.984375 302.453125 C-371.54645456 295.51724275 -363.10606843 288.58352694 -354.44921875 281.921875 C-351.03415303 279.24211051 -347.67606859 276.49396385 -344.3125 273.75 C-339.2457167 269.61731641 -334.1538512 265.52360119 -329 261.5 C-323.26355482 257.02093642 -317.61017849 252.44655233 -311.97192383 247.84472656 C-307.0055088 243.7984192 -301.98551973 239.82657792 -296.9375 235.8828125 C-293.42177072 233.13137219 -289.94676379 230.33791938 -286.5 227.5 C-282.48124259 224.19112528 -278.41423438 220.95460514 -274.3125 217.75 C-269.18444852 213.74125864 -264.10786655 209.67480676 -259.0625 205.5625 C-249.71859815 197.94728193 -240.3377773 190.37969481 -230.83642578 182.96142578 C-224.24079328 177.81099892 -217.76447057 172.53120886 -211.3190918 167.1940918 C-206.35085158 163.08881855 -201.32155917 159.07473232 -196.23828125 155.11328125 C-191.77910835 151.63146131 -187.38260975 148.07757644 -183 144.5 C-178.06057874 140.46789171 -173.09180764 136.48189147 -168.0625 132.5625 C-162.06155866 127.88286684 -156.19036363 123.05641321 -150.32983398 118.20263672 C-145.2527966 114.00703344 -140.11142406 109.90575428 -134.91748047 105.85620117 C-129.53906235 101.65820015 -124.25907625 97.34678751 -119 93 C-119.66 92.67 -120.32 92.34 -121 92 Z M-535 460 C-536.10788052 464.66169281 -536.3609609 469.30072546 -536.6484375 474.06640625 C-536.76604647 475.91292743 -536.88372525 477.75944417 -537.00146484 479.60595703 C-537.09243439 481.06077484 -537.09243439 481.06077484 -537.1852417 482.54498291 C-538.1307349 497.58011903 -539.12330787 512.61194234 -540.375 527.625 C-540.43247406 528.31459808 -540.48994812 529.00419617 -540.54916382 529.71469116 C-541.96767377 546.55041392 -543.67286101 563.3613767 -545.37451172 580.17041016 C-545.48192184 581.24156067 -545.58933197 582.31271118 -545.69999695 583.4163208 C-545.90225237 585.432321 -546.10687377 587.44808576 -546.31428528 589.46356201 C-546.76740715 593.99735144 -547.120204 598.4360491 -547 603 C-541.92244491 600.68557954 -537.71716037 597.74270895 -533.3125 594.375 C-532.25421997 593.57267944 -532.25421997 593.57267944 -531.17456055 592.75415039 C-525.33533405 588.30505755 -519.6210825 583.72203328 -514 579 C-513.4834082 578.5683252 -512.96681641 578.13665039 -512.43457031 577.69189453 C-506.02085785 572.33063993 -499.68912489 566.89959685 -493.51171875 561.265625 C-492.14169297 560.02983192 -490.76517674 558.80056442 -489.35888672 557.60620117 C-482.81498257 552.02025141 -476.80422495 545.91531276 -470.75 539.8125 C-469.66429907 538.72176968 -468.57836305 537.63127331 -467.4921875 536.54101562 C-465.50342963 534.54416269 -463.51601744 532.5459925 -461.53027344 530.54614258 C-459.35765864 528.35990177 -457.18087451 526.17799652 -455 524 C-455.57105469 523.61070312 -456.14210938 523.22140625 -456.73046875 522.8203125 C-463.41660879 518.20698217 -469.87606976 513.33487004 -476.27929688 508.34130859 C-478.0116162 506.99094503 -479.74791308 505.64581167 -481.484375 504.30078125 C-489.50145558 498.06961218 -497.3066231 491.6255817 -505 485 C-505.61552734 484.47083984 -506.23105469 483.94167969 -506.86523438 483.39648438 C-513.9536893 477.29711618 -521.00242928 471.17317979 -527.8515625 464.8046875 C-530.10917201 462.90829551 -532.43636021 461.4482316 -535 460 Z " fill="#CFFF70" transform="translate(1996,0)"/>
<path d="M0 0 C1 1 1 1 1.37109375 3.76953125 C1.27159278 9.79010557 -1.61990418 15.24090209 -3.9375 20.6875 C-4.43967041 21.88850342 -4.94184082 23.08950684 -5.45922852 24.3269043 C-6.95758929 27.89129825 -8.47579456 31.44659364 -10 35 C-10.39960937 35.94262695 -10.79921875 36.88525391 -11.2109375 37.85644531 C-16.96343625 51.37583733 -23.73445751 64.23681167 -31 77 C-31.5264209 77.92635254 -32.0528418 78.85270508 -32.59521484 79.80712891 C-46.33219005 103.83951749 -62.10427961 126.85630189 -80 148 C-80.85738666 149.03073806 -81.71412505 150.0620156 -82.5703125 151.09375 C-92.56284503 163.0880322 -103.23371531 174.32350418 -114.25 185.375 C-114.95764999 186.08666824 -114.95764999 186.08666824 -115.67959595 186.81271362 C-121.27754153 192.43475733 -126.96576155 197.85071964 -133 203 C-134.21521263 204.06841494 -135.42877246 205.13871287 -136.640625 206.2109375 C-143.64334905 212.36574654 -150.71475275 218.28982629 -158.28173828 223.75 C-160.26234611 225.19085139 -162.22234165 226.65791818 -164.18359375 228.125 C-185.80572511 244.18287066 -185.80572511 244.18287066 -198.30859375 248.578125 C-207.28712909 251.64603731 -207.28712909 251.64603731 -213.08447266 258.87158203 C-214.18820644 261.49422804 -215.18034487 264.14940632 -216.14990234 266.82421875 C-217.69611173 270.78166219 -219.69662684 274.50159216 -221.6875 278.25 C-222.3220813 279.45064087 -222.3220813 279.45064087 -222.96948242 280.67553711 C-232.02455803 297.55711024 -243.10021408 313.27750891 -254 329 C-254.55252441 329.79776855 -255.10504883 330.59553711 -255.67431641 331.41748047 C-261.40031145 339.66382473 -267.2603833 347.76642658 -273.43359375 355.68359375 C-275.83695243 358.77067463 -278.17662925 361.90278587 -280.51196289 365.04150391 C-287.95986269 375.04943602 -295.82845318 384.64989437 -303.90551758 394.15380859 C-306.89412047 397.6746859 -309.83592709 401.22937974 -312.75 404.8125 C-315.45524021 408.1248408 -318.16600155 411.43027502 -320.9375 414.6875 C-321.48277344 415.33074219 -322.02804687 415.97398437 -322.58984375 416.63671875 C-324 418 -324 418 -326 418 C-326.20109375 418.52980469 -326.4021875 419.05960938 -326.609375 419.60546875 C-328.61672732 423.06194901 -331.3867973 425.55156875 -334.25 428.3125 C-339.47816709 433.40936019 -339.47816709 433.40936019 -344.3125 438.875 C-346.82660688 441.92307648 -349.66645732 444.37502097 -352.67578125 446.92578125 C-355.51199524 449.45692348 -358.15509194 452.15989598 -360.8125 454.875 C-365.4188876 459.55690215 -370.2256786 463.78235701 -375.375 467.87109375 C-377.8900635 469.91084019 -380.25526703 472.04438705 -382.625 474.25 C-389.01662508 480.06516522 -395.93147681 485.18384295 -402.8359375 490.36669922 C-404.85053389 491.88719221 -406.8494313 493.42571454 -408.84375 494.97265625 C-441.49981498 520.15298133 -478.15692793 539.87758008 -516 556 C-516.804375 556.34514648 -517.60875 556.69029297 -518.4375 557.04589844 C-540.62634215 566.46208734 -564.3989543 573.28599933 -588 578 C-589.89844505 578.39449491 -591.79688239 578.78902692 -593.6953125 579.18359375 C-595.56728555 579.56199344 -597.43967013 579.93836407 -599.3125 580.3125 C-600.15449951 580.48442871 -600.99649902 580.65635742 -601.86401367 580.83349609 C-607.33246801 581.8821507 -612.43152607 582.1508012 -618 582 C-618.16798096 582.55324951 -618.33596191 583.10649902 -618.5090332 583.67651367 C-620.25792372 589.20188353 -622.4289173 594.22225102 -625.1875 599.3125 C-625.78123413 600.41815308 -625.78123413 600.41815308 -626.38696289 601.54614258 C-629.8858585 607.96602553 -633.7815932 614.02787352 -638 620 C-638.77917807 621.12984147 -639.55780159 622.26006553 -640.3359375 623.390625 C-654.67761022 644.05672619 -672.34933235 663.49812665 -693 678 C-693.67708008 678.47840332 -694.35416016 678.95680664 -695.05175781 679.44970703 C-715.77584929 693.96215457 -737.76124972 705.59742687 -762 713 C-763.05574219 713.34675781 -764.11148438 713.69351563 -765.19921875 714.05078125 C-768.77151498 715.1668545 -772.3638107 716.12153225 -776 717 C-776.74040527 717.18481934 -777.48081055 717.36963867 -778.24365234 717.56005859 C-806.35751417 724.24736389 -839.98667619 724.02739738 -868 717 C-868.89041992 716.78569336 -869.78083984 716.57138672 -870.69824219 716.35058594 C-907.6140944 707.28330297 -939.54045686 687.87036365 -967 662 C-967.84433594 661.22140625 -968.68867187 660.4428125 -969.55859375 659.640625 C-987.49283372 642.53853377 -1000.01895994 620.07451793 -1009 597.1875 C-1009.30301025 596.41639893 -1009.60602051 595.64529785 -1009.91821289 594.85083008 C-1011.09073972 591.77376451 -1012 589.32093476 -1012 586 C-1012.66306152 586.19110352 -1013.32612305 586.38220703 -1014.00927734 586.57910156 C-1043.26479852 594.97825102 -1072.41195637 601.37516793 -1103 602 C-1104.30324219 602.03996094 -1105.60648438 602.07992187 -1106.94921875 602.12109375 C-1153.41149012 602.8947065 -1201.09641798 593.25277663 -1243 573 C-1243.78890625 572.62794434 -1244.5778125 572.25588867 -1245.390625 571.87255859 C-1269.81557279 560.33695531 -1292.35649042 545.30123213 -1312.51708984 527.31982422 C-1313.83056081 526.15080479 -1315.15841002 524.99798443 -1316.48828125 523.84765625 C-1328.60749476 513.23570627 -1340.16551753 501.77014888 -1350 489 C-1350.86241496 487.92533961 -1351.7271307 486.85252284 -1352.59375 485.78125 C-1363.65399941 472.04317346 -1373.16965431 457.59384196 -1381.76708984 442.19873047 C-1382.85499291 440.25860075 -1383.96437828 438.33321687 -1385.08203125 436.41015625 C-1394.44903534 419.75558482 -1401.55454185 401.29429197 -1407 383 C-1407.20286621 382.33339355 -1407.40573242 381.66678711 -1407.61474609 380.97998047 C-1418.80381047 343.96739998 -1418.80381047 343.96739998 -1416 329 C-1413.40118335 326.30576244 -1412.23400212 326.0246318 -1408.4375 325.625 C-1405 326 -1405 326 -1403.35864258 327.22753906 C-1401.68929574 329.40533925 -1401.32120184 331.04021704 -1400.82421875 333.734375 C-1400.63939941 334.68924805 -1400.45458008 335.64412109 -1400.26416016 336.62792969 C-1399.97871338 338.17335449 -1399.97871338 338.17335449 -1399.6875 339.75 C-1388.96246628 394.10437258 -1365.36027248 452.00509315 -1324.6953125 491.22265625 C-1323 493 -1323 493 -1323 495 C-1322.34 495 -1321.68 495 -1321 495 C-1319.765625 496.29296875 -1319.765625 496.29296875 -1318.25 498.1875 C-1308.02690682 510.13547721 -1295.62547351 519.74042898 -1283 529 C-1282.09636719 529.66644531 -1281.19273437 530.33289062 -1280.26171875 531.01953125 C-1277.87292653 532.73384096 -1275.45325776 534.37922911 -1273 536 C-1272.47245117 536.350625 -1271.94490234 536.70125 -1271.40136719 537.0625 C-1253.40376746 548.93389726 -1234.25136421 558.62076039 -1214 566 C-1213.03586182 566.35650635 -1213.03586182 566.35650635 -1212.05224609 566.72021484 C-1191.63792243 574.18886984 -1170.28805266 578.61845905 -1148.8125 581.625 C-1147.49463501 581.81002075 -1147.49463501 581.81002075 -1146.15014648 581.9987793 C-1102.51091473 587.8510939 -1058.78752984 582.05961576 -1017 569 C-1017.01571045 568.20005615 -1017.0314209 567.4001123 -1017.04760742 566.57592773 C-1017.47701421 541.40036963 -1016.58041593 516.4813109 -998.7734375 496.6015625 C-991.48758741 490.02183004 -984.41321161 487.65279134 -974.8046875 487.79296875 C-966.8099548 488.38310919 -960.64357752 492.46787554 -955 498 C-947.91053117 506.58415375 -944.40042623 516.51961293 -945.125 527.6875 C-947.22105261 542.77471201 -954.44474978 554.93229283 -966.60986328 564.23046875 C-975.82161169 570.9600405 -985.69912309 576.15412098 -996 581 C-983.57749395 623.92840697 -953.89238462 657.8697172 -915.31787109 679.72998047 C-903.03636686 686.45932374 -890.31660861 691.71954029 -877 696 C-875.91332031 696.36738281 -874.82664062 696.73476562 -873.70703125 697.11328125 C-824.37748555 712.67522076 -772.29461213 702.95985026 -727.25 679.6875 C-709.313592 670.12777616 -693.7315018 656.86244917 -679 643 C-678.34128906 642.38382813 -677.68257812 641.76765625 -677.00390625 641.1328125 C-662.44032026 627.07373873 -651.38323272 609.53959407 -641.26757812 592.16552734 C-639.86304805 589.76603163 -638.43391447 587.38203041 -637 585 C-638.31790527 585.01571045 -639.63581055 585.0314209 -640.99365234 585.04760742 C-713.72288995 585.83762575 -713.72288995 585.83762575 -746 571 C-746.94117676 570.56929199 -746.94117676 570.56929199 -747.90136719 570.12988281 C-757.78414151 565.51526078 -765.39901973 559.7898245 -773 552 C-773.90492188 551.12601563 -773.90492188 551.12601563 -774.828125 550.234375 C-784.33578228 540.32639531 -788.40250301 526.65144849 -788.3125 513.25 C-788.30404053 511.92947632 -788.30404053 511.92947632 -788.29541016 510.58227539 C-788.03466769 496.53703407 -783.98640584 484.95751232 -774.25 474.625 C-766.07302954 466.91318654 -756.87089472 462.99093215 -745.609375 463.00390625 C-734.09043042 463.58982659 -725.09423136 466.56629673 -715 472 C-714.96132812 470.89205078 -714.96132812 470.89205078 -714.921875 469.76171875 C-714.14998109 455.95534353 -709.38374124 444.37069331 -699 435 C-698.28457031 434.27876953 -698.28457031 434.27876953 -697.5546875 433.54296875 C-688.11701035 424.53842171 -676.04471759 422.50877339 -663.53125 422.72265625 C-649.22614759 423.32977736 -636.90360663 430.18684518 -626 439 C-625.39800781 439.46792969 -624.79601562 439.93585938 -624.17578125 440.41796875 C-622.74017605 441.55909083 -621.36311349 442.77319786 -620 444 C-620 444.66 -620 445.32 -620 446 C-619.34 446 -618.68 446 -618 446 C-600.72210818 466.12785336 -597.28378001 492.25095627 -599.20654297 517.73779297 C-600.77079867 534.2526665 -604.32063296 550.7777689 -611 566 C-570.13795139 557.24164133 -531.72275417 546.2704733 -494 528 C-492.58121752 527.32969453 -491.1620056 526.66029655 -489.7421875 525.9921875 C-471.38779895 517.22503558 -453.64419529 506.68116606 -437 495 C-435.59255451 494.02458577 -434.1849969 493.04933329 -432.77734375 492.07421875 C-411.14092586 477.01025058 -390.80849509 460.30121375 -371.48974609 442.37207031 C-369.94784791 440.95196743 -368.39205415 439.54859265 -366.83203125 438.1484375 C-361.72039165 433.54677952 -356.8693304 428.91040614 -352.44140625 423.62890625 C-350.52011571 421.45769174 -348.26120882 419.80896706 -346 418 C-344.33372405 416.19825446 -342.74630345 414.33867035 -341.15234375 412.47265625 C-338.49714128 409.42230568 -335.75231509 406.46256139 -333 403.5 C-328.58490741 398.73389132 -324.22415458 393.93720632 -320 389 C-319.16984375 388.03707031 -318.3396875 387.07414062 -317.484375 386.08203125 C-312.03021975 379.72304365 -306.78829207 373.24137001 -301.72265625 366.56640625 C-299.73498123 363.94956048 -297.71704573 361.35877708 -295.68359375 358.77734375 C-288.31172927 349.40946494 -281.25902313 339.8886916 -274.46337891 330.09570312 C-273.00435949 328.00624322 -271.52722154 325.93097131 -270.04296875 323.859375 C-247.1810182 293.02328245 -247.1810182 293.02328245 -230 259 C-231.1859375 258.98582031 -232.371875 258.97164062 -233.59375 258.95703125 C-250.53763611 258.54849024 -264.97678496 255.48261389 -278 244 C-279.3515625 241.72265625 -279.3515625 241.72265625 -280 240 C-280.66 240 -281.32 240 -282 240 C-291.58356799 228.87147394 -296.59686945 215.42237889 -296.24609375 200.79296875 C-295.22948378 189.25525246 -290.15431282 180.42726458 -281.86328125 172.50390625 C-273.20734054 165.51745516 -263.67507802 165.41057851 -253 166 C-237.7308982 168.49550417 -223.8608681 179.34085413 -214.71875 191.38671875 C-208.05969123 201.51151493 -205.67254648 211.46938223 -205.875 223.4375 C-205.88402344 224.45521484 -205.89304687 225.47292969 -205.90234375 226.52148438 C-205.92575302 229.01457156 -205.958543 231.50715859 -206 234 C-179.74802454 220.84490808 -157.03583146 203.87592096 -135.37109375 184.15234375 C-133.83336246 182.75647894 -132.2844377 181.37280903 -130.72265625 180.00390625 C-125.22918707 175.1685565 -119.99552651 170.10088031 -114.8125 164.9375 C-114.14718262 164.2767749 -113.48186523 163.6160498 -112.79638672 162.93530273 C-108.3278027 158.45283423 -104.12984966 153.79401918 -100 149 C-98.97821999 147.84358545 -97.95483241 146.68858892 -96.9296875 145.53515625 C-88.82720076 136.35417703 -81.29268059 126.833707 -74 117 C-73.44779785 116.25814453 -72.8955957 115.51628906 -72.32666016 114.75195312 C-65.14137569 105.06589767 -58.37935302 95.21901103 -52.14550781 84.89404297 C-51.04227344 83.06989713 -49.92526611 81.25493459 -48.8046875 79.44140625 C-39.20781944 63.80804149 -30.48178099 47.66504016 -22.89697266 30.96289062 C-22.00203774 29.0044593 -21.08865151 27.05582111 -20.16796875 25.109375 C-19.57021715 23.84379503 -18.97255936 22.57817075 -18.375 21.3125 C-18.08931152 20.70776855 -17.80362305 20.10303711 -17.50927734 19.47998047 C-16.04889691 16.3568322 -14.66336238 13.22014311 -13.37109375 10.0234375 C-13.10828613 9.37979248 -12.84547852 8.73614746 -12.57470703 8.07299805 C-11.85675764 6.29698166 -11.15630563 4.51392071 -10.45703125 2.73046875 C-9 0 -9 0 -6.9921875 -1.4375 C-4.13353496 -2.24464895 -2.57916032 -1.32443368 0 0 Z M-274.8125 186.6875 C-279.78027281 194.21012739 -281.015733 200.98394303 -280 210 C-277.31921861 221.2380779 -270.90550986 231.1271296 -261.3125 237.625 C-250.58274836 243.9707673 -239.144711 244.45761403 -227.1875 241.5 C-225.45390415 241.01557994 -223.72280511 240.52149776 -222 240 C-219.32224079 226.61120397 -219.44831546 211.92089594 -226.875 200.1875 C-229.31096716 196.77594895 -231.87894995 193.81655737 -235 191 C-235.73283203 190.26136719 -235.73283203 190.26136719 -236.48046875 189.5078125 C-242.68380006 183.58444151 -250.14107358 180.83513219 -258.6875 180.5625 C-265.29497906 180.8546995 -269.98296698 182.07261289 -274.8125 186.6875 Z M-689 447 C-695.16097532 453.92661109 -698.91336234 461.73741925 -699.375 471.0625 C-698.79219465 477.18195616 -697.59592537 482.54952291 -693.3125 487.125 C-691 490 -691 490 -690.4375 493.625 C-691 497 -691 497 -692.5625 499.5 C-696.0827634 501.66631594 -698.02802089 500.9309326 -702 500 C-704.31016769 498.54586991 -706.32327639 497.12694809 -708.4375 495.4375 C-719.78073386 486.88805977 -735.23931725 477.35992414 -750 479 C-755.78281565 480.31566705 -761.20613251 482.22876498 -765 487 C-771.41079221 497.66928007 -774.79495937 508.03540181 -772.3125 520.43359375 C-770.37607101 527.92918763 -767.85600078 533.96713315 -763 540 C-762.23558594 540.9796875 -761.47117187 541.959375 -760.68359375 542.96875 C-743.79121086 563.06415337 -713.32222015 566.60625685 -689 569 C-687.94135742 569.10803955 -687.94135742 569.10803955 -686.86132812 569.21826172 C-667.58446063 571.10883899 -648.19584453 570.2395152 -629 568 C-626.43152968 562.4636083 -624.18776473 556.97162901 -622.4375 551.125 C-622.22697998 550.43156494 -622.01645996 549.73812988 -621.79956055 549.02368164 C-621.38303715 547.64353783 -620.96959334 546.26246002 -620.55957031 544.88037109 C-620.07950001 543.26715056 -619.58421497 541.65847137 -619.0859375 540.05078125 C-612.31542919 517.17466984 -612.2260222 489.65960303 -623 468 C-631.51782751 454.10826414 -643.0395869 443.28260047 -659 439 C-670.30941585 436.69066474 -680.29477048 439.32841554 -689 447 Z M-990.84765625 513.33203125 C-997.64467515 523.17042809 -1000.55979911 536.17199349 -1001 548 C-1001.03996094 548.96164062 -1001.07992188 549.92328125 -1001.12109375 550.9140625 C-1001.31579428 557.23337087 -1001.31579428 557.23337087 -999 563 C-985.37689918 556.6359237 -969.00347253 548.6035757 -962.69140625 534.0546875 C-960.26170637 526.83422346 -960.90591681 521.51786277 -963.75 514.45703125 C-965.4214717 511.1715447 -967.15482162 509.32106657 -970 507 C-970.66 506.34 -971.32 505.68 -972 505 C-980.35071972 503.56367621 -985.72481517 506.70343497 -990.84765625 513.33203125 Z " fill="#CFFF70" transform="translate(1416,617)"/>
</svg>
