<!-- <svg xmlns="http://www.w3.org/2000/svg" enable-background="new 0 0 24 24" viewBox="0 0 24 24" id="Typescript">
  <path d="M0,12v12h24V0H0V12z M14.563,19.626c0.108-0.061,0.511-0.294,0.892-0.515l0.69-0.4l0.145,0.214c0.202,0.308,0.643,0.731,0.91,0.872c0.766,0.404,1.817,0.347,2.335-0.118c0.193-0.163,0.314-0.405,0.314-0.675c0-0.016,0-0.031-0.001-0.047v0.002c0-0.278-0.035-0.4-0.18-0.61c-0.186-0.266-0.567-0.49-1.649-0.96c-1.238-0.533-1.771-0.864-2.259-1.39c-0.294-0.334-0.521-0.736-0.653-1.178l-0.006-0.022c-0.091-0.339-0.114-1.189-0.042-1.531c0.255-1.197,1.158-2.03,2.461-2.278c0.423-0.08,1.406-0.05,1.821,0.053v0.001c0.61,0.152,1.074,0.423,1.501,0.865c0.221,0.236,0.549,0.666,0.575,0.77c0.008,0.03-1.036,0.73-1.668,1.123c-0.023,0.015-0.115-0.084-0.217-0.236c-0.31-0.45-0.633-0.644-1.128-0.678c-0.728-0.05-1.196,0.331-1.192,0.967c0,0.011-0.001,0.024-0.001,0.037c0,0.151,0.038,0.293,0.105,0.417l-0.002-0.005c0.16,0.331,0.458,0.53,1.39,0.933c1.719,0.74,2.454,1.227,2.911,1.92c0.51,0.773,0.625,2.008,0.278,2.926c-0.38,0.998-1.325,1.676-2.655,1.9c-0.411,0.073-1.386,0.062-1.828-0.018c-0.964-0.172-1.878-0.648-2.442-1.273c-0.221-0.243-0.652-0.88-0.625-0.925C14.354,19.751,14.453,19.69,14.563,19.626z M5.258,12.065c0-0.534,0.011-0.98,0.026-0.99c0.012-0.016,1.913-0.024,4.217-0.02l4.195,0.012l0.011,0.979l0.008,0.983H10.59v8.876H8.38v-8.876H5.258V12.065z" fill="#000000" class="color000000 svgShape"></path>
</svg> -->
<svg xmlns="http://www.w3.org/2000/svg" viewBox="0 0 24 24" id="typescript">
  <path fill="#1677C7" d="M0 12v12h24V0H0v12zm14.563 7.626c.108-.061.511-.294.892-.515l.69-.4.145.214c.202.308.643.731.91.872.766.404 1.817.347 2.335-.118a.88.88 0 0 0 .314-.675l-.001-.047v.002c0-.278-.035-.4-.18-.61-.186-.266-.567-.49-1.649-.96-1.238-.533-1.771-.864-2.259-1.39a3.152 3.152 0 0 1-.653-1.178l-.006-.022c-.091-.339-.114-1.189-.042-1.531.255-1.197 1.158-2.03 2.461-2.278.423-.08 1.406-.05 1.821.053v.001c.61.152 1.074.423 1.501.865.221.236.549.666.575.77.008.03-1.036.73-1.668 1.123-.023.015-.115-.084-.217-.236-.31-.45-.633-.644-1.128-.678-.728-.05-1.196.331-1.192.967l-.001.037c0 .151.038.293.105.417l-.002-.005c.16.331.458.53 1.39.933 1.719.74 2.454 1.227 2.911 1.92.51.773.625 2.008.278 2.926-.38.998-1.325 1.676-2.655 1.9-.411.073-1.386.062-1.828-.018-.964-.172-1.878-.648-2.442-1.273-.221-.243-.652-.88-.625-.925a1.58 1.58 0 0 1 .22-.141zm-9.305-7.561c0-.534.011-.98.026-.99.012-.016 1.913-.024 4.217-.02l4.195.012.011.979.008.983H10.59v8.876H8.38v-8.876H5.258v-.964z"></path>
</svg>