<svg xmlns="http://www.w3.org/2000/svg" viewBox="0 0 512.01 512.01" id="paper-plane">
  <path d="M511.687 14.189a17.478 17.478 0 0 0-4.729-8.98 19.533 19.533 0 0 0-1.254-1.149A17.463 17.463 0 0 0 494.793.013H494.775a16.758 16.758 0 0 0-2.385.122c-.041-.006-.018 0-.023 0a17.358 17.358 0 0 0-6.356 2.064L9.291 255.126a17.496 17.496 0 0 0 1.458 31.595l149.285 62.391a17.504 17.504 0 0 0 18.876-3.534l168.015-161.747-132.881 175.917a17.493 17.493 0 0 0-3.295 13.406 17.486 17.486 0 0 0 7.441 11.622l173.777 117.795a17.5 17.5 0 0 0 16.479 1.697 17.476 17.476 0 0 0 10.508-12.794l92.661-470.276a17.9 17.9 0 0 0 .391-3.371 17.148 17.148 0 0 0-.319-3.638zM162.926 312.403 58.363 268.702 392.469 91.438 162.926 312.403zm226.808 146.386-136.666-92.644L462.65 88.697l-72.916 370.092z"></path>
  <path d="m270.627 394.504-65.726 64.017-20.847-128.35-34.54 5.616 26.241 161.531a17.487 17.487 0 0 0 17.261 14.684c4.49 0 8.893-1.732 12.223-4.957l89.798-87.472-24.41-25.069z"></path>
  <path d="m176.176 489.756 34.998-124.211 33.677 9.489-34.999 124.21z"></path>
</svg>